<?xml version="1.0" encoding="UTF-8" standalone="no"?>
<!-- Created with Inkscape (http://www.inkscape.org/) -->

<svg
   xmlns:dc="http://purl.org/dc/elements/1.1/"
   xmlns:cc="http://creativecommons.org/ns#"
   xmlns:rdf="http://www.w3.org/1999/02/22-rdf-syntax-ns#"
   xmlns:svg="http://www.w3.org/2000/svg"
   xmlns="http://www.w3.org/2000/svg"
   xmlns:sodipodi="http://sodipodi.sourceforge.net/DTD/sodipodi-0.dtd"
   xmlns:inkscape="http://www.inkscape.org/namespaces/inkscape"
   width="1920px"
   height="1080px"
   viewBox="0 0 1920 1080"
   version="1.1"
   id="SVGRoot"
   inkscape:version="0.92.4 (5da689c313, 2019-01-14)"
   sodipodi:docname="drawing-1.svg">
  <defs
     id="defs35" />
  <sodipodi:namedview
     id="base"
     pagecolor="#ffffff"
     bordercolor="#666666"
     borderopacity="1.0"
     inkscape:pageopacity="0.0"
     inkscape:pageshadow="2"
     inkscape:zoom="0.35"
     inkscape:cx="960"
     inkscape:cy="997.14286"
     inkscape:document-units="px"
     inkscape:current-layer="layer1"
     showgrid="false"
     inkscape:window-width="2560"
     inkscape:window-height="1395"
     inkscape:window-x="-13"
     inkscape:window-y="-13"
     inkscape:window-maximized="1" />
  <metadata
     id="metadata38">
    <rdf:RDF>
      <cc:Work
         rdf:about="">
        <dc:format>image/svg+xml</dc:format>
        <dc:type
           rdf:resource="http://purl.org/dc/dcmitype/StillImage" />
        <dc:title></dc:title>
      </cc:Work>
    </rdf:RDF>
  </metadata>
  <g
     inkscape:label="Layer 1"
     inkscape:groupmode="layer"
     id="layer1">
    <ellipse
       style="fill:#ff0000"
       id="path238"
       cx="954.28571"
       cy="555.71429"
       rx="525.71429"
       ry="435.71429" />
    <path class="spiral"
       sodipodi:type="spiral"
       style="fill:#b3ff80;fill-rule:evenodd;stroke:#ffff00"
       sodipodi:cx="962.85718"
       sodipodi:cy="565.71429"
       sodipodi:expansion="1"
       sodipodi:revolution="4"
       sodipodi:radius="392.00168"
       sodipodi:argument="-26.062952"
       sodipodi:t0="0"
       d="m 962.85718,565.71429 c 8.81003,-11.81834 20.27744,6.045 19.64286,14.64286 -1.71969,23.29966 -30.09854,31.1435 -48.92857,24.64286 -33.68252,-11.62811 -43.48501,-53.14978 -29.64287,-83.21428 20.31389,-44.12086 76.49313,-56.13526 117.5,-34.64288 54.6557,28.64597 68.9136,99.93748 39.6429,151.78572 -36.8343,65.24572 -123.42931,81.75761 -186.07145,44.64288 -75.86803,-44.9509 -94.63943,-146.9477 -49.64289,-220.35714 53.02686,-86.51048 170.48268,-107.54498 254.64284,-54.6429 97.1663,61.07756 120.4664,194.02873 59.6429,288.92858 -69.1115,107.83123 -217.58253,133.39886 -323.21427,64.6429 -118.50285,-77.13379 -146.3394,-241.14203 -69.64291,-357.5 85.14763,-129.17939 264.70578,-159.28596 391.78568,-74.64292 139.8597,93.15517 172.2372,288.27287 79.643,426.07143 C 1117.0565,906.61433 906.37181,941.2634 757.85721,840.71433 596.62873,731.55757 559.70748,505.30003 668.21428,346.07147 785.36692,174.15556 1027.2021,134.96165 1197.1429,251.42853" />
  </g>
  <g
     inkscape:groupmode="layer"
     id="layer2"
     inkscape:label="Layer 2" />
</svg>
